<svg xmlns="http://www.w3.org/2000/svg" viewBox="0 0 70 70">
  <title>Qiy logo</title>
  <path d="M27.12,13h0a10.9,10.9,0,0,0-9.84,6.2c-0.71.32-1.39,0.65-2,1a24.88,24.88,0,0,0-6.47,4.91A16.57,16.57,0,0,0,4.4,33.82,15.22,15.22,0,0,0,7,45.06a24.93,24.93,0,0,0,11,8.37A44.3,44.3,0,0,0,35.18,56.7,48,48,0,0,0,44,55.9a9.4,9.4,0,0,0,2,.64,10.43,10.43,0,0,0,2,.18A13.73,13.73,0,0,0,58.61,51l1.93-2.79A19.86,19.86,0,0,0,63.31,45,15.24,15.24,0,0,0,66,33.85a16.58,16.58,0,0,0-4.41-8.7,24.87,24.87,0,0,0-6.47-4.91,35.43,35.43,0,0,0-6.58-2.7A44.09,44.09,0,0,0,42,16.11a48.81,48.81,0,0,0-6.78-.47h-1A10.88,10.88,0,0,0,27.12,13h0Z" style="fill: #fff"/>
  <path d="M59.07,35a9.75,9.75,0,0,0-2.64-5,18,18,0,0,0-4.66-3.51,28.51,28.51,0,0,0-5.27-2.16A37.12,37.12,0,0,0,41,23a40.5,40.5,0,0,0-10.11-.16,3.9,3.9,0,0,0-7.63,1.51v0.06a28,28,0,0,0-4.68,2,18,18,0,0,0-4.66,3.51,9.75,9.75,0,0,0-2.64,5A8.31,8.31,0,0,0,12.83,41a18,18,0,0,0,7.9,6,37.23,37.23,0,0,0,14.44,2.71A39.94,39.94,0,0,0,45.3,48.45a4.64,4.64,0,0,0,2,1.22c2,0.39,4.54-1.19,5.51-2.6a6.64,6.64,0,0,1-1.47-.91,16.62,16.62,0,0,0,6.16-5.07A8.31,8.31,0,0,0,59.07,35Zm-5.46,4.17A15.59,15.59,0,0,1,48.11,43c-0.74-.84-1.4-1.64-1.83-2.2-1.22-1.58-2.14-3.73-3.59-5.09s-3.25-.76-4.84.13a9.53,9.53,0,0,1-3.45,1.45,3.3,3.3,0,0,1-2.33-.64c-1.56-1.1-2.33-3-3-4.69-0.43-1.19-.73-3.6-2.38-3.68-0.93,0-1.42,1.11-1.54,1.77-0.77,4.18,1.38,13.1,5.9,14.75,1.65,0.61,3.3-.46,4.65-1.33a14.91,14.91,0,0,0,3.19-3.38c0-.06,2.55,3.67,2.78,4l0.55,0.75a35.49,35.49,0,0,1-7.11.72,33,33,0,0,1-11.56-2,16.71,16.71,0,0,1-6.88-4.46,7.18,7.18,0,0,1-1.92-4.92,7.21,7.21,0,0,1,1.75-4.3,13.68,13.68,0,0,1,3.8-3.13,21.9,21.9,0,0,1,3.12-1.44A3.9,3.9,0,0,0,31,23.54a35.43,35.43,0,0,1,9.45.12,31.49,31.49,0,0,1,5,1.13,23.17,23.17,0,0,1,4.58,2,13.66,13.66,0,0,1,3.8,3.13,7.21,7.21,0,0,1,1.75,4.3,7.17,7.17,0,0,1-2,4.91v0Z"/>
</svg>
